<svg clip-rule="evenodd" fill-rule="evenodd" stroke-linejoin="round" stroke-miterlimit="1.41421" viewBox="0 0 560 400"
    xmlns="http://www.w3.org/2000/svg">
    <g fill-rule="nonzero" transform="matrix(2.12504 0 0 2.12504 -196.025 -157.006)">
        <g fill="#5b77cc">
            <path
                d="m244.079 99.379c-2.277-.724-4.554-1.242-6.935-1.656l-.621-.103-8.797 64.273 9.108-5.485v-.311l7.659-56.614z" />
            <path
                d="m250.91 101.76-.725-.31-6.934 51.025 9.004-5.382v-.31l5.693-41.607-.414-.207c-2.07-1.139-4.347-2.277-6.624-3.209z" />
            <path
                d="m270.782 114.284c-2.07-1.863-4.244-3.623-6.521-5.175l-.828-.621-4.761 34.776 9.212-5.486v-.31l3.105-22.977z" />
        </g>
        <path
            d="m184.049 108.902-.414.31c-1.967 1.346-3.83 2.795-5.589 4.347l-.518.414 44.402 46.989 1.449-10.557-.207-.207z"
            fill="#008ed6" />
        <path
            d="m196.779 101.864-.414.207c-2.277.931-4.45 2.069-6.624 3.311l-.724.414 35.293 37.261 1.449-10.454-.207-.207z"
            fill="#008ed6" />
        <path
            d="m228.036 114.18-15.939-16.767-.31.103c-2.795.518-5.486 1.139-8.073 1.967l-.932.31 24.012 25.358 1.449-10.66z"
            fill="#008ed6" />
        <g fill="#096">
            <path
                d="m293.448 154.959c-.414-2.484-1.035-4.864-1.656-7.245l-.207-.828-43.987 26.392 9.832 3.726.207-.206 35.811-21.528z" />
            <path
                d="m289.412 140.78c-.932-2.174-1.863-4.347-3.002-6.418l-.31-.621-55.373 33.224 9.936 3.726.207-.207 48.749-29.29z" />
            <path
                d="m294.38 162.825-.104-1.035-29.911 17.906 9.936 3.829.207-.103 19.768-11.903v-.311c.104-1.241.104-2.38.104-3.622.207-1.656.103-3.208 0-4.761z" />
            <path
                d="m197.297 213.437.103.31 7.038 22.045.311.104c2.691.725 5.382 1.345 8.073 1.76l1.035.207-10.764-33.327z" />
            <path
                d="m223.068 174.21-5.899 8.901.103.31 17.492 54.338.517-.104c2.381-.414 4.658-.931 6.935-1.449l.621-.207z" />
            <path
                d="m207.336 198.222.104.311 12.834 39.951h.414c1.138 0 2.173.103 3.312.103 1.345 0 2.691 0 4.036-.103h.828l-15.732-49.059z" />
        </g>
        <path
            d="m171.732 175.038-.207.207-12.73 19.458.103.311c1.035 2.587 2.277 5.071 3.623 7.452l.517.931 19.251-29.187z"
            fill="#5b77cc" />
        <path
            d="m207.647 171.933-.207.207-31.257 47.61.414.311c1.759 1.552 3.622 3.104 5.485 4.554l.518.413 35.604-54.13z"
            fill="#5b77cc" />
        <path
            d="m189.741 173.486-.207.207-22.977 34.982.207.311c1.449 1.966 3.002 3.933 4.658 5.796l.517.621 28.256-42.953z"
            fill="#5b77cc" />
        <path
            d="m210.441 157.339h-.31l-56.511 5.072v.517c-.104 1.449-.104 3.002-.104 4.451 0 .931 0 1.76.104 2.691v.621l64.17-5.692z"
            fill="#096" />
        <path
            d="m185.498 131.051h-.311l-22.977 2.07-.103.31c-1.346 2.484-2.484 4.968-3.519 7.555l-.414.932 34.672-3.105z"
            fill="#096" />
        <path d="m198.021 144.298h-.31l-41.607 3.726-.104.415c-.621 2.38-1.138 4.76-1.552 7.245l-.104.828 50.922-4.554z"
            fill="#096" />
        <path
            d="m228.657 172.451 3.209 10.143.31.103 53.096 20.183.207-.518c1.138-2.07 2.173-4.14 3.208-6.417l.311-.621z"
            fill="#008ed6" />
        <path d="m237.455 199.774.31.104 39.02 14.8.31-.31c1.656-1.863 3.105-3.83 4.554-5.796l.414-.621-47.92-18.216z"
            fill="#008ed6" />
        <path
            d="m242.94 217.163.311.103 21.528 8.177.31-.207c2.277-1.656 4.451-3.416 6.521-5.279l.724-.724-32.602-12.317z"
            fill="#008ed6" />
    </g>
</svg>