<?xml version="1.0" encoding="UTF-8"?>
<!DOCTYPE svg PUBLIC "-//W3C//DTD SVG 1.1//EN" "http://www.w3.org/Graphics/SVG/1.1/DTD/svg11.dtd">
<svg xmlns="http://www.w3.org/2000/svg" version="1.1" width="319px" height="389px" style="shape-rendering:geometricPrecision; text-rendering:geometricPrecision; image-rendering:optimizeQuality; fill-rule:evenodd; clip-rule:evenodd" xmlns:xlink="http://www.w3.org/1999/xlink">
<g><path style="opacity:0.966" fill="#000000" d="M 148.5,1.5 C 194.322,-1.39143 234.655,11.7752 269.5,41C 302.458,72.8376 318.458,111.838 317.5,158C 318.319,213.023 296.986,257.023 253.5,290C 225.591,308.077 194.925,317.077 161.5,317C 149.774,323.176 145.607,332.676 149,345.5C 152.03,352.109 157.197,355.942 164.5,357C 166.833,357.333 169.167,357.667 171.5,358C 215.499,358.5 259.499,358.667 303.5,358.5C 303.5,368.167 303.5,377.833 303.5,387.5C 259.165,387.667 214.832,387.5 170.5,387C 159.054,386.711 148.054,384.378 137.5,380C 120.219,368.861 113.385,353.027 117,332.5C 118.495,325.844 121.329,319.844 125.5,314.5C 57.3243,299.123 16.8243,257.123 4,188.5C -3.98594,139.451 6.68072,95.1175 36,55.5C 66.0461,22.0609 103.546,4.06092 148.5,1.5 Z M 147.5,32.5 C 191.222,29.1171 227.722,43.4504 257,75.5C 280.992,108.437 289.325,145.104 282,185.5C 274.246,227.578 251.079,257.744 212.5,276C 178.296,289.454 143.962,289.787 109.5,277C 66.0998,257.094 41.5998,223.261 36,175.5C 30.7175,131.005 43.8841,93.1721 75.5,62C 96.4566,44.6868 120.457,34.8534 147.5,32.5 Z"/></g>
<g><path style="opacity:0.987" fill="#001eff" d="M 191.5,154.5 C 220.062,151.689 239.229,163.689 249,190.5C 253.893,221.561 241.393,241.728 211.5,251C 182.445,254.39 163.278,242.223 154,214.5C 150.026,184.101 162.526,164.101 191.5,154.5 Z"/></g>
</svg>
